<svg width="800" height="400" viewBox="0 0 800 400" xmlns="http://www.w3.org/2000/svg">
  <defs>
    <linearGradient id="medicalGrad" x1="0%" y1="0%" x2="100%" y2="100%">
      <stop offset="0%" style="stop-color:#ef4444;stop-opacity:1" />
      <stop offset="100%" style="stop-color:#dc2626;stop-opacity:1" />
    </linearGradient>
  </defs>
  
  <rect width="800" height="400" fill="#1a0505"/>
  
  <rect x="40" y="30" width="720" height="340" rx="8" fill="#2a0a0a" stroke="#ef4444" stroke-width="1"/>
  
  <text x="60" y="65" font-family="Arial" font-size="24" font-weight="bold" fill="#ef4444">EmergencyAI Diagnosis</text>
  <text x="60" y="90" font-family="Arial" font-size="14" fill="#ef4444" opacity="0.7">Real-time Medical Assessment</text>
  
  <rect x="60" y="110" width="340" height="240" rx="6" fill="#3a1010" stroke="#ef4444" stroke-width="0.5"/>
  <text x="80" y="135" font-family="Arial" font-size="16" font-weight="bold" fill="#ef4444">Patient Vitals</text>
  <text x="80" y="165" font-family="monospace" font-size="13" fill="#fecaca">Heart Rate: 98 BPM</text>
  <text x="80" y="190" font-family="monospace" font-size="13" fill="#fecaca">Blood Pressure: 145/92</text>
  <text x="80" y="215" font-family="monospace" font-size="13" fill="#fecaca">Temperature: 101.2°F</text>
  <text x="80" y="240" font-family="monospace" font-size="13" fill="#fecaca">SpO2: 94%</text>
  
  <rect x="80" y="260" width="300" height="70" rx="4" fill="#4a1818" stroke="#ef4444" stroke-width="0.5"/>
  <text x="100" y="285" font-family="Arial" font-size="14" font-weight="bold" fill="#ef4444">AI Assessment</text>
  <text x="100" y="310" font-family="Arial" font-size="12" fill="#fecaca">Analyzing symptoms...</text>
  
  <rect x="420" y="110" width="340" height="110" rx="6" fill="#3a1010" stroke="#ef4444" stroke-width="0.5"/>
  <text x="440" y="135" font-family="Arial" font-size="16" font-weight="bold" fill="#ef4444">Reported Symptoms</text>
  <rect x="440" y="145" width="120" height="25" rx="4" fill="#4a1818"/>
  <text x="455" y="163" font-family="Arial" font-size="12" fill="#fecaca">Chest Pain</text>
  <rect x="575" y="145" width="150" height="25" rx="4" fill="#4a1818"/>
  <text x="590" y="163" font-family="Arial" font-size="12" fill="#fecaca">Shortness of Breath</text>
  <rect x="440" y="180" width="100" height="25" rx="4" fill="#4a1818"/>
  <text x="455" y="198" font-family="Arial" font-size="12" fill="#fecaca">Dizziness</text>
  
  <rect x="420" y="240" width="340" height="110" rx="6" fill="#3a1010" stroke="#ef4444" stroke-width="0.5"/>
  <text x="440" y="265" font-family="Arial" font-size="16" font-weight="bold" fill="#ef4444">Urgency Level</text>
  <rect x="440" y="275" width="300" height="30" rx="4" fill="#4a1818"/>
  <rect x="440" y="275" width="240" height="30" rx="4" fill="url(#medicalGrad)"/>
  <text x="550" y="296" font-family="Arial" font-size="14" font-weight="bold" fill="white">HIGH - Seek immediate care</text>
  <text x="440" y="330" font-family="Arial" font-size="12" fill="#fecaca">Confidence: 92%</text>
</svg>
