<svg width="800" height="400" viewBox="0 0 800 400" xmlns="http://www.w3.org/2000/svg">
  <defs>
    <linearGradient id="streamGrad" x1="0%" y1="0%" x2="100%" y2="100%">
      <stop offset="0%" style="stop-color:#8b5cf6;stop-opacity:1" />
      <stop offset="100%" style="stop-color:#6d28d9;stop-opacity:1" />
    </linearGradient>
  </defs>
  
  <rect width="800" height="400" fill="#0a0510"/>
  
  <rect x="40" y="30" width="720" height="340" rx="8" fill="#1a0a2a" stroke="#8b5cf6" stroke-width="1"/>
  
  <text x="60" y="65" font-family="Arial" font-size="24" font-weight="bold" fill="#8b5cf6">Event Streaming Pipeline</text>
  <text x="60" y="90" font-family="Arial" font-size="14" fill="#8b5cf6" opacity="0.7">Distributed Message Broker</text>
  
  <rect x="60" y="110" width="220" height="240" rx="6" fill="#2a1040" stroke="#8b5cf6" stroke-width="0.5"/>
  <text x="80" y="135" font-family="Arial" font-size="16" font-weight="bold" fill="#8b5cf6">Producers</text>
  <rect x="80" y="150" width="180" height="30" rx="4" fill="#3a1850"/>
  <text x="95" y="172" font-family="monospace" font-size="12" fill="#c4b5fd">Producer-1: Active</text>
  <rect x="80" y="190" width="180" height="30" rx="4" fill="#3a1850"/>
  <text x="95" y="212" font-family="monospace" font-size="12" fill="#c4b5fd">Producer-2: Active</text>
  <rect x="80" y="230" width="180" height="30" rx="4" fill="#3a1850"/>
  <text x="95" y="252" font-family="monospace" font-size="12" fill="#c4b5fd">Producer-3: Active</text>
  
  <text x="80" y="290" font-family="Arial" font-size="14" fill="#8b5cf6">Throughput</text>
  <text x="80" y="315" font-family="monospace" font-size="20" font-weight="bold" fill="#c4b5fd">98,543 msg/sec</text>
  
  <rect x="300" y="110" width="220" height="240" rx="6" fill="#2a1040" stroke="#8b5cf6" stroke-width="0.5"/>
  <text x="320" y="135" font-family="Arial" font-size="16" font-weight="bold" fill="#8b5cf6">Partitions</text>
  <rect x="320" y="150" width="80" height="25" rx="4" fill="#3a1850"/>
  <text x="335" y="168" font-family="monospace" font-size="11" fill="#c4b5fd">Part 0</text>
  <rect x="410" y="150" width="80" height="25" rx="4" fill="#3a1850"/>
  <text x="425" y="168" font-family="monospace" font-size="11" fill="#c4b5fd">Part 1</text>
  <rect x="320" y="185" width="80" height="25" rx="4" fill="#3a1850"/>
  <text x="335" y="203" font-family="monospace" font-size="11" fill="#c4b5fd">Part 2</text>
  <rect x="410" y="185" width="80" height="25" rx="4" fill="#3a1850"/>
  <text x="425" y="203" font-family="monospace" font-size="11" fill="#c4b5fd">Part 3</text>
  
  <text x="320" y="235" font-family="Arial" font-size="14" fill="#8b5cf6">Replication</text>
  <rect x="320" y="245" width="180" height="30" rx="4" fill="#4a2870"/>
  <rect x="320" y="245" width="135" height="30" rx="4" fill="url(#streamGrad)"/>
  <text x="360" y="266" font-family="monospace" font-size="13" fill="white">Factor: 3</text>
  
  <text x="320" y="300" font-family="Arial" font-size="12" fill="#c4b5fd">Retention: 30 days</text>
  <text x="320" y="325" font-family="Arial" font-size="12" fill="#c4b5fd">Storage: 2.4 TB</text>
  
  <rect x="540" y="110" width="220" height="240" rx="6" fill="#2a1040" stroke="#8b5cf6" stroke-width="0.5"/>
  <text x="560" y="135" font-family="Arial" font-size="16" font-weight="bold" fill="#8b5cf6">Consumer Groups</text>
  <rect x="560" y="150" width="180" height="30" rx="4" fill="#3a1850"/>
  <text x="575" y="172" font-family="monospace" font-size="12" fill="#c4b5fd">analytics-svc (3)</text>
  <rect x="560" y="190" width="180" height="30" rx="4" fill="#3a1850"/>
  <text x="575" y="212" font-family="monospace" font-size="12" fill="#c4b5fd">notification-svc (5)</text>
  <rect x="560" y="230" width="180" height="30" rx="4" fill="#3a1850"/>
  <text x="575" y="252" font-family="monospace" font-size="12" fill="#c4b5fd">logging-svc (2)</text>
  
  <text x="560" y="290" font-family="Arial" font-size="14" fill="#8b5cf6">Status</text>
  <circle cx="575" cy="310" r="6" fill="#10b981"/>
  <text x="590" y="315" font-family="Arial" font-size="12" fill="#c4b5fd">All consumers healthy</text>
</svg>
