<?xml version="1.0" encoding="UTF-8"?>
<svg width="1170" height="2532" xmlns="http://www.w3.org/2000/svg">
  <defs>
    <linearGradient id="bg0" x1="0%" y1="0%" x2="100%" y2="100%">
      <stop offset="0%" style="stop-color:#58a6ff;stop-opacity:0.2" />
      <stop offset="100%" style="stop-color:#000000;stop-opacity:1" />
    </linearGradient>
  </defs>
  
  <!-- Background -->
  <rect width="1170" height="2532" fill="url(#bg0)"/>
  
  <!-- Header -->
  <text x="60" y="200" font-family="system-ui, -apple-system, sans-serif" font-size="80" font-weight="700" fill="#58a6ff">Fintrion</text>
  
  <!-- Tagline -->
  <text x="60" y="300" font-family="system-ui, -apple-system, sans-serif" font-size="48" fill="#ffffff" opacity="0.7">Distributed Payment Mesh</text>
  
  <!-- Status Badge -->
  <rect x="60" y="350" width="180" height="60" rx="30" fill="#58a6ff" opacity="0.2"/>
  <circle cx="100" cy="380" r="8" fill="#58a6ff"/>
  <text x="120" y="390" font-family="system-ui" font-size="32" fill="#58a6ff" font-weight="600">LIVE</text>
  
  <!-- Stats -->
  
  <rect x="60" y="550" width="1050" height="140" rx="30" fill="#ffffff" opacity="0.05"/>
  <text x="100" y="630" font-family="system-ui" font-size="42" fill="#ffffff" font-weight="600">100K+ Events/sec</text>
  
  <rect x="60" y="730" width="1050" height="140" rx="30" fill="#ffffff" opacity="0.05"/>
  <text x="100" y="810" font-family="system-ui" font-size="42" fill="#ffffff" font-weight="600">99.9% Uptime</text>
  
  <rect x="60" y="910" width="1050" height="140" rx="30" fill="#ffffff" opacity="0.05"/>
  <text x="100" y="990" font-family="system-ui" font-size="42" fill="#ffffff" font-weight="600">Sub-200ms Latency</text>
  
  
  <!-- Chart -->
  <text x="60" y="1350" font-family="system-ui" font-size="36" fill="#ffffff" opacity="0.5">Activity Chart</text>
  
  <rect x="60" y="1948.2889445201329" width="70" height="451.7110554798671" rx="20" fill="#58a6ff" opacity="0.8"/>
  
  <rect x="150" y="1863.8674187434872" width="70" height="536.1325812565128" rx="20" fill="#58a6ff" opacity="0.8"/>
  
  <rect x="240" y="2175.033396426465" width="70" height="224.96660357353505" rx="20" fill="#58a6ff" opacity="0.8"/>
  
  <rect x="330" y="2085.550832503336" width="70" height="314.44916749666373" rx="20" fill="#58a6ff" opacity="0.8"/>
  
  <rect x="420" y="2064.2626364734647" width="70" height="335.7373635265353" rx="20" fill="#58a6ff" opacity="0.8"/>
  
  <rect x="510" y="2213.2983591420734" width="70" height="186.7016408579264" rx="20" fill="#58a6ff" opacity="0.8"/>
  
  <rect x="600" y="1801.4668068701812" width="70" height="598.5331931298189" rx="20" fill="#58a6ff" opacity="0.8"/>
  
  <rect x="690" y="1973.877139223269" width="70" height="426.1228607767309" rx="20" fill="#58a6ff" opacity="0.8"/>
  
  <rect x="780" y="2136.838749596537" width="70" height="263.16125040346293" rx="20" fill="#58a6ff" opacity="0.8"/>
  
  <rect x="870" y="2115.8130222987215" width="70" height="284.1869777012786" rx="20" fill="#58a6ff" opacity="0.8"/>
  
  <rect x="960" y="2128.0926457298438" width="70" height="271.90735427015636" rx="20" fill="#58a6ff" opacity="0.8"/>
  
  <rect x="1050" y="1925.748253257581" width="70" height="474.2517467424192" rx="20" fill="#58a6ff" opacity="0.8"/>
  
  
  <!-- Footer -->
  <text x="60" y="2480" font-family="system-ui" font-size="28" fill="#ffffff" opacity="0.3">Project Dashboard • Real-time Metrics</text>
</svg>